<svg width="307" height="77" viewBox="0 0 307 77" fill="none" xmlns="http://www.w3.org/2000/svg">
<g clip-path="url(#clip0_1_52)">
<path d="M73.5545 17.3584V24.8952C65.551 24.9842 60.2652 29.4351 60.2652 35.696V61.8374H51.2463V17.2694H59.7575V22.9368C62.7438 19.1387 67.6714 17.3584 73.5545 17.3584Z" fill="#1A3523"/>
<path d="M84.7237 46.289V24.9545H76.7202V17.2397H81.0504C83.9472 17.2397 85.2313 15.8154 85.2313 12.9372V5.75645H94.0113V17.2694H106.524V24.9842H93.6529V45.3692C93.6529 50.9476 96.6393 54.0039 101.985 54.0039H107.002V61.8671H100.193C90.0693 61.8671 84.6938 55.8435 84.6938 46.289H84.7237Z" fill="#1A3523"/>
<path d="M156.516 39.6127C156.516 52.906 147.139 62.8759 134.357 62.8759C127.877 62.8759 122.681 60.3241 119.186 55.9326V77H110.168V17.2694H118.529V24.3017C122.113 19.3168 127.638 16.3495 134.536 16.3495C147.408 16.3495 156.516 26.3491 156.516 39.6127ZM147.557 39.6127C147.557 30.7407 141.495 24.2127 133.252 24.2127C125.01 24.2127 118.768 30.5626 118.768 39.6127C118.768 48.6628 124.652 54.9237 133.252 54.9237C141.853 54.9237 147.557 48.3958 147.557 39.6127Z" fill="#1A3523"/>
<path d="M161.085 0H170.104V61.8671H161.085V0Z" fill="#1A3523"/>
<path d="M46.3188 17.2694V61.8671H37.9868V54.5973C34.5823 59.7603 29.1172 62.9056 22.1589 62.9056C9.28765 62.9056 0 52.906 0 39.5534C0 26.2008 9.37724 16.8836 22.1589 16.8836C29.1471 16.8836 34.5823 19.7618 37.9868 24.8358V17.299H46.3188V17.2694ZM37.6583 39.5237C37.6583 30.5626 31.8647 24.2127 23.2639 24.2127C14.6631 24.2127 8.95914 30.8 8.95914 39.5237C8.95914 48.2474 15.0215 54.9237 23.2639 54.9237C31.5063 54.9237 37.6583 48.5738 37.6583 39.5237Z" fill="#1A3523"/>
<path d="M270.626 17.2694L252.917 61.8671L246.944 77.0297H238.074L244.196 61.8671H241.658L224.964 17.2694H234.252L247.272 54.5083L261.249 17.2694H270.626Z" fill="#1A3523"/>
<path d="M271.88 38.4258H282.93C283.617 38.4258 284.184 37.862 284.184 37.1796V25.459C284.184 24.7765 284.751 24.2127 285.438 24.2127H291.262C291.949 24.2127 292.516 24.7765 292.516 25.459V37.1796C292.516 37.862 293.083 38.4258 293.77 38.4258H304.82C305.507 38.4258 306.074 38.9896 306.074 39.6721V45.0724C306.074 45.7549 305.507 46.3187 304.82 46.3187H293.77C293.083 46.3187 292.516 46.8825 292.516 47.5649V59.2559C292.516 59.9383 291.949 60.5021 291.262 60.5021H285.438C284.751 60.5021 284.184 59.9383 284.184 59.2559V47.5649C284.184 46.8825 283.617 46.3187 282.93 46.3187H271.88C271.193 46.3187 270.626 45.7549 270.626 45.0724V39.6721C270.626 38.9896 271.193 38.4258 271.88 38.4258Z" fill="#B9EDC4"/>
<path d="M212.66 17.2694V24.8062C209.256 19.7322 203.791 16.854 196.832 16.854C184.051 16.854 174.673 26.3195 174.673 39.5237C174.673 52.7279 183.961 62.8759 196.832 62.8759C203.821 62.8759 209.256 59.7306 212.66 54.5676V61.8374H220.992V17.2694H212.66ZM207.165 42.5206L194.802 49.6123C192.741 50.7992 190.173 49.3156 190.173 46.9418V32.7584C190.173 30.3846 192.741 28.901 194.802 30.0879L207.165 37.1796C209.226 38.3665 209.226 41.304 207.165 42.4909V42.5206Z" fill="#1A3523"/>
<path d="M296.607 11.4536H300.729V12.2547H299.146V16.4682H298.16V12.2547H296.578V11.4536H296.607Z" fill="#1A3523"/>
<path d="M301.445 11.4536H302.55L304.223 14.7472L305.895 11.4536H307V16.4682H306.104V12.7888L304.521 15.9638H303.894L302.311 12.7888V16.4682H301.445V11.4536Z" fill="#1A3523"/>
</g>
<defs>
<clipPath id="clip0_1_52">
<rect width="307" height="77" fill="white"/>
</clipPath>
</defs>
</svg>
